<svg xmlns="http://www.w3.org/2000/svg" width="44.02" height="44.402"><path d="M25.264 30.239c-.956 1.338-1.916 2.294-3.063 2.874-1.147.574-2.298.957-3.828.957-2.681 0-4.593-.766-5.743-2.11-1.339-1.53-2.104-3.633-2.104-6.317 0-4.015 1.147-7.266 3.445-9.949 2.103-2.677 4.784-4.019 8.038-4.019 1.147 0 2.298.191 3.254.765.765.577 1.53 1.342 2.107 2.298l1.147-2.298h4.979l-3.64 14.932v.191c0 .19-.191.573-.191.573 0 .573.191.956.382 1.147.382.191.765.382 1.147.382 2.11 0 4.022-1.147 5.551-3.441 1.722-2.493 2.486-5.17 2.486-8.229 0-4.021-1.338-7.085-4.207-9.574-2.684-2.486-6.317-3.828-10.913-3.828-2.295 0-4.401.382-6.313.956-1.916.577-3.828 1.533-5.361 2.681-2.486 1.724-4.401 4.019-5.548 6.699-1.342 2.684-2.107 5.552-2.107 8.802 0 4.979 1.724 8.803 4.784 11.869 3.254 2.868 7.464 4.404 12.634 4.404 2.68 0 5.169-.389 7.464-1.153 2.294-.956 4.596-1.912 6.508-3.442l2.295 3.251c-2.486 1.919-4.972 3.448-7.655 4.404-2.677.956-5.549 1.339-8.611 1.339-2.872 0-5.743-.383-8.229-1.147-2.489-.765-4.787-2.104-6.699-3.64-2.489-1.912-4.21-4.207-5.361-6.891C.574 30.048 0 27.18 0 23.922c0-2.868.382-5.36 1.338-7.846.765-2.486 1.916-4.784 3.637-6.89 2.298-3.06 4.978-5.357 8.232-6.891C16.649.765 20.289 0 24.113 0c2.68 0 5.169.383 7.464 1.147 2.493.765 4.405 1.916 6.126 3.254 2.104 1.725 3.639 3.637 4.787 5.935.955 2.294 1.529 4.784 1.529 7.461 0 2.875-.574 5.36-1.529 7.662-.957 2.294-2.492 4.206-4.405 5.736-1.147.956-2.294 1.728-3.633 2.109-1.338.574-2.684.766-4.022.766-1.721 0-3.059-.383-3.828-.957-.765-.58-1.338-1.536-1.338-2.874zm.765-10.715c-.191-1.147-.574-2.11-1.147-2.875-.574-.574-1.533-.956-2.489-.956-1.721 0-3.063.956-4.21 3.066-1.342 1.912-1.916 4.207-1.916 6.883 0 1.346.191 2.493.765 3.258.577.765 1.342 1.147 2.298 1.147 1.342 0 2.489-.573 3.445-1.53.956-.955 1.725-2.294 2.107-3.83l1.147-5.163z"/></svg>