<svg xmlns="http://www.w3.org/2000/svg" width="44.442" height="44.442"><path d="M18.391 0h9.197v5.824l1.227.611 1.224.307 4.3-3.98 7.347 7.66-3.98 3.987.614 1.225.305 1.225h5.819v10.729h-5.819l-.305 1.227-.614 1.224 3.98 4.3-7.347 7.347-4.3-3.98-1.224.614-1.227.305v5.819H16.859v-5.819l-1.225-.305-1.225-.614-3.987 3.98-7.66-7.347 3.98-4.3-.307-1.224-.611-1.227H0V16.859h5.824l.611-1.225.307-1.225-3.98-3.987 7.66-7.66 3.987 3.98 1.225-.307 1.225-.611V0h1.532zm6.134 3.374h-4.291v4.9l-1.233.312c-.917.306-1.531.306-2.143.613l-1.838.918-1.224.919-3.375-3.681-3.067 3.067 3.681 3.375-.919 1.224-.918 1.838c-.308.612-.308 1.226-.613 2.144l-.306 1.23H3.374v4.293H8.28l.306 1.227c.306.611.306 1.223.613 1.835.305.614.612 1.227.918 1.838l.919 1.224-3.681 3.688 3.067 2.754 3.375-3.378 1.224.624 1.838.916c.612.308 1.226.615 2.143.615l1.233.304v5.208h4.291v-5.208l1.228-.304c.611 0 1.223-.308 1.835-.615.614-.304 1.227-.611 1.838-.916l1.225-.624 3.688 3.378 2.755-2.754-3.379-3.688.624-1.224.919-1.838c.305-.612.612-1.224.612-1.835l.304-1.227h5.208v-4.293h-5.208l-.304-1.23c0-.918-.308-1.532-.612-2.144-.307-.612-.614-1.225-.919-1.838l-.624-1.224 3.379-3.375-2.755-3.067-3.688 3.681-1.225-.919-1.838-.918c-.612-.308-1.224-.308-1.835-.613l-1.228-.312v-4.9zm-2.148 11.341c1.838 0 3.987.919 5.21 2.144 1.534 1.531 2.146 3.374 2.146 5.512 0 1.848-.611 3.993-2.146 5.216-1.224 1.531-3.372 2.146-5.21 2.146-2.143 0-3.987-.614-5.518-2.146-1.225-1.224-2.143-3.368-2.143-5.216 0-2.138.917-3.981 2.143-5.512 1.532-1.225 3.376-2.144 5.518-2.144zm3.068 4.595c-.92-.919-1.843-1.225-3.068-1.225-1.226 0-2.45.306-3.068 1.225-.919.618-1.225 1.842-1.225 3.062 0 1.235.306 2.155 1.225 3.074.618.611 1.842 1.223 3.068 1.223 1.225 0 2.148-.611 3.068-1.223.611-.919 1.223-1.839 1.223-3.074 0-1.22-.611-2.445-1.223-3.062z"/></svg>