<svg xmlns="http://www.w3.org/2000/svg" width="50.703" height="55.178"><path d="M43.134 41.299c-4.588-3.442-10.899-5.51-17.782-5.51-6.882 0-13.191 2.067-17.78 5.51C2.867 44.852 0 49.788 0 55.178h3.098c0-4.474 2.409-8.489 6.31-11.473 4.014-2.979 9.75-4.932 15.944-4.932 6.195 0 11.93 1.952 15.944 4.932 3.9 2.983 6.312 6.999 6.312 11.473h3.095c0-5.39-2.866-10.326-7.569-13.879zm-17.782-8.375c4.476 0 8.605-1.952 11.585-4.817 2.984-2.983 4.818-7.113 4.818-11.702 0-4.474-1.834-8.604-4.818-11.587a16.784 16.784 0 00-2.177-1.835l-.692-.46-.229-.115-.115-.114h-.114v-.115c-.229-.115-.344-.115-.573-.229l-.114-.115h-.114C30.975.916 29.025.229 26.845.114h-.23L26.5 0h-2.181l-.229.114h-1.032l-.229.115h-.344l-.229.115h-.46l-.114.114h-.229l-.229.115h-.229l-.115.115h-.229l-.231.114h-.115l-.231.115h-.229l-.115.116h-.229l-.229.114-.114.115h-.229l-.115.114-.229.115h-.229l-.114.115-.229.114-.114.115-.233.115h-.114l-.229.114-.115.115c-.229.115-.344.229-.573.344-1.034.689-2.065 1.377-2.867 2.294a16.28 16.28 0 00-4.13 6.884c-.115.229-.115.458-.229.688v.114l-.114.229v.344l-.115.458v.229l-.116.231v.801l-.115.115v3.095c.46 3.901 2.18 7.458 4.82 10.097 2.98 2.87 6.995 4.822 11.583 4.822zM11.931 15.601l.114-.229v-.802l.115-.115v-.574l.114-.117v-.343l.115-.229v-.229l.115-.229v-.23l.114-.114v-.23l.115-.114v-.229h.115v-.23l.114-.114v-.232h.115v-.229l.115-.114.114-.229.115-.344v-.115h.116v-.115l.115-.229.115-.115v-.114l.114-.116v-.116h.115v-.114l.115-.115.229-.344.229-.229v-.229h.115V8.26h.115v-.115l.114-.114.115-.114v-.116h.114v-.114h.115v-.115h.115l.114-.115v-.114h.115v-.115h.115v-.117l.114-.114c2.525-2.409 5.852-3.899 9.522-3.899h1.377c1.604.229 3.098.573 4.474 1.261l.115.115c-1.031 3.213-2.984 5.965-5.507 8.03-2.867 2.294-6.424 3.557-10.21 3.557-.802 0-1.604 0-2.409-.114-.458-.115-.802-.115-1.261-.231v-.115zm.802 3.327c.919.115 1.95.229 2.867.229 4.59 0 8.718-1.606 12.046-4.244 2.869-2.294 5.046-5.276 6.311-8.719.344.229.573.459.917.803a13.273 13.273 0 013.901 9.407c0 3.786-1.494 7.112-3.901 9.521-2.525 2.411-5.851 3.9-9.522 3.9-3.671 0-6.997-1.489-9.522-3.9-1.833-1.948-3.211-4.359-3.669-7.111.229.114.458.114.572.114z"/></svg>